<svg xmlns="http://www.w3.org/2000/svg" xmlns:svg="http://www.w3.org/2000/svg" xmlns:xlink="http://www.w3.org/1999/xlink" id="svg2383" width="180" height="52" version="1.0" style="display:inline"><defs id="defs2385"><linearGradient id="linearGradient3910"><stop style="stop-color:#000;stop-opacity:1" id="stop3912" offset="0"/><stop style="stop-color:#000;stop-opacity:0" id="stop3914" offset="1"/></linearGradient><linearGradient id="linearGradient4140"><stop style="stop-color:#ffe50a;stop-opacity:1" id="stop4142" offset="0"/><stop id="stop4150" offset=".49" style="stop-color:#fcea5b;stop-opacity:1"/><stop id="stop4148" offset=".604" style="stop-color:#edd400;stop-opacity:1"/><stop style="stop-color:#d6c000;stop-opacity:1" id="stop4144" offset="1"/></linearGradient><linearGradient id="linearGradient3426"><stop style="stop-color:#cdcdcd;stop-opacity:1" id="stop3428" offset="0"/><stop style="stop-color:#989898;stop-opacity:1" id="stop3430" offset="1"/></linearGradient><linearGradient id="linearGradient3361"><stop style="stop-color:#d1d1d1;stop-opacity:1" id="stop3363" offset="0"/><stop style="stop-color:#85867f;stop-opacity:0" id="stop3365" offset="1"/></linearGradient><linearGradient id="linearGradient3343"><stop style="stop-color:#e7e8e7;stop-opacity:1" id="stop3345" offset="0"/><stop id="stop3351" offset=".355" style="stop-color:#85867f;stop-opacity:1"/><stop style="stop-color:#8a8b85;stop-opacity:1" id="stop3357" offset=".553"/><stop style="stop-color:#e8e8e6;stop-opacity:1" id="stop3353" offset=".75"/><stop id="stop3355" offset=".875" style="stop-color:#e3e3e2;stop-opacity:1"/><stop style="stop-color:#85867f;stop-opacity:1" id="stop3347" offset="1"/></linearGradient><linearGradient id="linearGradient3330"><stop style="stop-color:#63645e;stop-opacity:1" id="stop3332" offset="0"/><stop style="stop-color:#d8d9d7;stop-opacity:1" id="stop3334" offset="1"/></linearGradient><linearGradient id="linearGradient3174"><stop style="stop-color:#fff;stop-opacity:0" id="stop3176" offset="0"/><stop id="stop3182" offset=".026" style="stop-color:#fff;stop-opacity:0"/><stop style="stop-color:#fff;stop-opacity:.68103451" id="stop3184" offset=".103"/><stop id="stop3186" offset=".294" style="stop-color:#fff;stop-opacity:0"/><stop style="stop-color:#fff;stop-opacity:0" id="stop3188" offset=".494"/><stop id="stop3190" offset=".768" style="stop-color:#fff;stop-opacity:.68103451"/><stop style="stop-color:#fff;stop-opacity:.70689654" id="stop3194" offset=".833"/><stop style="stop-color:#fff;stop-opacity:0" id="stop3178" offset="1"/></linearGradient><filter id="filter3534" width="1.229" height="1.836" x="-.115" y="-.418"><feGaussianBlur id="feGaussianBlur3536" stdDeviation="2.955"/></filter><linearGradient id="linearGradient4152" x1="12.785" x2="42.609" y1="17.262" y2="21.1" gradientTransform="matrix(0.9898657,0.5290083,-0.52817535,0.98830712,8.6007275,-14.225263)" gradientUnits="userSpaceOnUse" xlink:href="#linearGradient4140"/><filter id="filter3883" width="1.214" height="1.896" x="-.107" y="-.448"><feGaussianBlur id="feGaussianBlur3885" stdDeviation="5.914"/></filter><radialGradient id="radialGradient3916" cx="25.454" cy="44.811" r="21.542" fx="25.454" fy="44.811" gradientTransform="matrix(2.0471236,-0.05164693,0.02652595,1.0514061,-25.117708,-21.747692)" gradientUnits="userSpaceOnUse" xlink:href="#linearGradient3910"/><radialGradient id="radialGradient4270" cx="65.912" cy="40.811" r="21.542" fx="65.912" fy="40.811" gradientTransform="matrix(-3.8410307,-0.00823075,0.00312485,-1.4582821,288.14593,87.430435)" gradientUnits="userSpaceOnUse" xlink:href="#linearGradient3910"/></defs><metadata id="metadata2388"/><g id="layer6" style="display:inline"><path style="opacity:.45;fill:#000;fill-opacity:.18811885;stroke:none;filter:url(#filter3534)" id="path3370" d="m 55.356359,38.302536 a 30.910667,8.485281 0 1 1 -61.8213344,0 30.910667,8.485281 0 1 1 61.8213344,0 z" transform="matrix(0.43660868,0,0,0.53092582,10.777999,23.937337)"/><text style="font-size:6.01588392000000027px;font-style:normal;font-weight:400;line-height:125%;letter-spacing:0;word-spacing:0;opacity:.34213125;fill:url(#radialGradient4270);fill-opacity:1;stroke:none;display:inline;font-family:Sans" id="text3028" x="-10.453" y="-45.764" xml:space="preserve"><tspan style="fill:url(#radialGradient4270);fill-opacity:1" id="tspan4268" x="-10.453" y="-45.764">0111010001101111011011110010000001101101011000010110111001111001</tspan><tspan style="fill:url(#radialGradient4270);fill-opacity:1" id="tspan4316" x="-10.453" y="-38.244">0010000001110011011001010110001101110010011001010111010001110011</tspan><tspan style="fill:url(#radialGradient4270);fill-opacity:1" id="tspan4318" x="-10.453" y="-30.724">0111010001101111011011110010000001101101011000010110111001111001</tspan><tspan style="fill:url(#radialGradient4270);fill-opacity:1" id="tspan4320" x="-10.453" y="-23.205">0010000001110011011001010110001101110010011001010111010001110011</tspan><tspan style="fill:url(#radialGradient4270);fill-opacity:1" id="tspan4322" x="-10.453" y="-15.685">0111010001101111011011110010000001101101011000010110111001111001</tspan><tspan style="fill:url(#radialGradient4270);fill-opacity:1" id="tspan4324" x="-10.453" y="-8.165">0010000001110011011001010110001101110010011001010111010001110011</tspan><tspan style="fill:url(#radialGradient4270);fill-opacity:1" id="tspan4326" x="-10.453" y="-.645">0111010001101111011011110010000001101101011000010110111001111001</tspan><tspan style="fill:url(#radialGradient4270);fill-opacity:1" id="tspan4328" x="-10.453" y="6.875">0010000001110011011001010110001101110010011001010111010001110011</tspan><tspan style="fill:url(#radialGradient4270);fill-opacity:1" id="tspan4330" x="-10.453" y="14.395">0111010001101111011011110010000001101101011000010110111001111001</tspan><tspan style="fill:url(#radialGradient4270);fill-opacity:1" id="tspan4332" x="-10.453" y="21.915">0010000001110011011001010110001101110010011001010111010001110011</tspan><tspan style="fill:url(#radialGradient4270);fill-opacity:1" id="tspan4334" x="-10.453" y="29.434">0111010001101111011011110010000001101101011000010110111001111001</tspan><tspan style="fill:url(#radialGradient4270);fill-opacity:1" id="tspan4336" x="-10.453" y="36.954">0010000001110011011001010110001101110010011001010111010001110011</tspan><tspan style="fill:url(#radialGradient4270);fill-opacity:1" id="tspan4338" x="-10.453" y="44.474">0111010001101111011011110010000001101101011000010110111001111001</tspan><tspan style="fill:url(#radialGradient4270);fill-opacity:1" id="tspan4340" x="-10.453" y="51.994">0010000001110011011001010110001101110010011001010111010001110011</tspan><tspan style="fill:url(#radialGradient4270);fill-opacity:1" id="tspan4342" x="-10.453" y="59.514">0111010001101111011011110010000001101101011000010110111001111001</tspan><tspan style="fill:url(#radialGradient4270);fill-opacity:1" id="tspan4344" x="-10.453" y="67.034">0010000001110011011001010110001101110010011001010111010001110011</tspan></text></g><g id="layer3" style="display:inline"><path style="fill:url(#linearGradient4152);fill-opacity:1;stroke:#c4a000;stroke-width:1;stroke-linecap:round;stroke-linejoin:round;stroke-miterlimit:4;stroke-opacity:1;stroke-dasharray:none" id="rect3942" d="M 30.198981,4.7423018 C 27.603462,3.3551933 24.497977,4.0990787 23.252373,6.4298176 22.806104,7.264865 22.657496,8.207834 22.773368,9.1120344 22.331047,7.8938257 21.39055,6.7848017 20.09279,6.0912475 17.497271,4.7041388 14.406213,5.4954406 13.16061,7.8261789 c -1.245603,2.3307391 -0.169335,5.3094541 2.426184,6.6965631 1.159336,0.619577 2.422664,0.787802 3.576144,0.600895 l 0.986978,4.775957 -12.1150241,22.669294 c 4.9198721,2.547763 5.3232811,2.757641 9.7151381,5.11259 l 1.766086,-3.304651 -6.062927,-3.240176 1.254416,-2.347229 6.062928,3.240176 1.914635,-3.582614 -6.062927,-3.240176 1.336944,-2.501653 6.124795,3.27324 1.914635,-3.582613 -6.124795,-3.273239 3.928305,-7.350535 4.533578,-1.785931 c 0.501629,0.956702 1.28838,1.800296 2.352778,2.369136 2.595519,1.387109 5.717509,0.612338 6.963112,-1.7184 1.245603,-2.330738 0.138402,-5.325986 -2.457117,-6.713095 -1.965927,-1.093746 -4.223756,-0.285853 -3.891712,-0.531306 0.482653,-0.371302 1.052777,-1.374623 1.353334,-1.937016 C 33.901701,9.1246576 32.7945,6.1294104 30.198981,4.7423018 z M 29.14263,6.7189161 c 1.020541,0.5454016 1.37928,1.809501 0.834737,2.8284351 C 29.432824,10.566283 28.182513,10.970469 27.161973,10.425067 26.141433,9.8796667 25.751761,8.5990343 26.296303,7.5801015 26.840846,6.5611674 28.12209,6.1735148 29.14263,6.7189161 z m 5.075829,9.7008179 c 1.02054,0.545402 1.410211,1.826033 0.865669,2.844966 -0.544543,1.018933 -1.825786,1.406587 -2.846327,0.861185 -1.020539,-0.545401 -1.410213,-1.826033 -0.86567,-2.844966 0.544543,-1.018934 1.825788,-1.406586 2.846328,-0.861185 z M 18.840451,8.360176 c 1.020541,0.5454016 1.37928,1.809501 0.834737,2.828434 -0.544543,1.018932 -1.794854,1.423118 -2.815394,0.877716 -1.02054,-0.545401 -1.410212,-1.826032 -0.86567,-2.8449654 0.544543,-1.0189336 1.825787,-1.406586 2.846327,-0.8611846 z"/></g><g id="layer8" style="display:inline"><text style="font-size:46.00891495px;font-style:normal;font-variant:normal;font-weight:400;font-stretch:normal;text-align:start;line-height:125%;writing-mode:lr-tb;text-anchor:start;opacity:.31538463;fill:#000;fill-opacity:1;stroke:none;display:inline;filter:url(#filter3883);font-family:Crimson Text;-inkscape-font-specification:Crimson Text" id="text2740-0" x="42.524" y="42.487" transform="matrix(1,0,0,0.28325973,-3.4285714,30.740092)" xml:space="preserve"><tspan id="tspan2742-1" x="42.524" y="42.487">PassLib</tspan></text></g><g id="layer1" style="display:inline"><text style="font-size:39.73984528px;font-style:normal;font-variant:normal;font-weight:400;font-stretch:normal;text-align:start;line-height:125%;writing-mode:lr-tb;text-anchor:start;fill:#000;fill-opacity:1;stroke:none;font-family:Noticia Text;-inkscape-font-specification:Noticia Text" id="text2740" x="40.887" y="39.11" xml:space="preserve"><tspan id="tspan2742" x="40.887" y="39.11">PassLib</tspan></text></g></svg>